<?xml version="1.0" encoding="iso-8859-1"?>
<!-- Uploaded to: SVG Repo, www.svgrepo.com, Generator: SVG Repo Mixer Tools -->
<svg version="1.1" id="Layer_1" xmlns="http://www.w3.org/2000/svg" xmlns:xlink="http://www.w3.org/1999/xlink" 
	 viewBox="0 0 512.002 512.002" xml:space="preserve">
<path style="fill:#BD391E;" d="M365.429,447.059v55.155c0,5.412-4.388,9.788-9.788,9.788H156.361c-5.4,0-9.788-4.376-9.788-9.788
	v-55.155H365.429z"/>
<path style="fill:#8C2B17;" d="M165.975,502.214v-55.155h-19.402v55.155c0,5.412,4.388,9.788,9.788,9.788h19.402
	C170.362,512.002,165.975,507.626,165.975,502.214z"/>
<path style="fill:#F7EDE3;" d="M480.628,195.679c-0.316,0.819-1.109,1.353-1.986,1.353H255.678v0.172H32.724
	c-0.881,0-1.672-0.535-1.988-1.357c-2.434-6.326-10.435-33.221,22.546-47.758c0.801-0.353,1.324-1.145,1.294-2.021
	c-0.264-7.525,0.145-42.574,29.642-55.101c8.76-3.742,20.08-5.476,34.713-3.917c1.261,0.135,2.351-0.869,2.34-2.138
	c-0.102-11.247,2.633-57.322,55.279-44.94c0.959,0.226,1.952-0.212,2.401-1.089c4.383-8.556,28.604-49.99,75.453-24.811
	c0.769,0.414,1.715,0.321,2.388-0.235c46.232-38.173,71.039,13.585,75.588,24.453c0.446,1.067,1.661,1.561,2.741,1.144
	c55.055-21.277,62.547,29.135,63.528,40.462c0.104,1.202,1.176,2.065,2.375,1.936c63.784-6.825,57.561,53.209,55.961,63.888
	c-0.143,0.956,0.386,1.877,1.268,2.268c6.701,2.976,11.697,6.463,15.387,10.183C488.007,172.662,482.559,190.661,480.628,195.679z"
	/>
<g>
	<path style="fill:#DBD2CA;" d="M70.951,153.616c0,0-3.141-37.245,26.112-49.581c7.37-3.125,16.79-4.654,28.837-3.61
		c2.054,0.179,3.854-1.386,3.899-3.448c0.259-11.988,4.599-47.145,47.305-38c1.674,0.358,3.358-0.55,3.963-2.15
		c4.311-11.409,23.652-52.72,74.611-42.054c0.002-0.16,0.014-0.308,0.017-0.467c-0.436,0.055-0.887-0.014-1.29-0.231
		c-46.849-25.179-71.07,16.257-75.453,24.811c-0.449,0.877-1.442,1.314-2.401,1.089c-52.647-12.382-55.382,33.692-55.279,44.939
		c0.011,1.267-1.079,2.272-2.34,2.138c-14.633-1.559-25.952,0.176-34.713,3.917c-29.496,12.526-29.906,47.575-29.642,55.101
		c0.03,0.876-0.492,1.668-1.294,2.021c-32.981,14.537-24.979,41.432-22.546,47.758c0.317,0.822,1.108,1.357,1.988,1.357h17.607
		C50.332,197.204,36.252,167.957,70.951,153.616z"/>
	<rect x="248.488" y="197.049" style="fill:#DBD2CA;" width="7.187" height="0.152"/>
</g>
<path style="fill:#7FB2F0;" d="M19.433,185.558h473.008c5.851,0,10.701,4.522,11.046,10.333
	c2.802,47.133-0.814,274.556-246.422,274.556c-245.428,0-251.027-227.141-248.683-274.452
	C8.672,190.142,13.542,185.558,19.433,185.558z"/>
<path style="fill:#5F95D4;" d="M28.4,195.995c0.29-5.854,5.16-10.437,11.052-10.437H19.433c-5.892,0-10.761,4.584-11.052,10.437
	c-2.345,47.312,3.255,274.452,248.683,274.452c3.384,0,6.716-0.05,10.008-0.136C31.51,464.208,26.088,242.654,28.4,195.995z"/>
<path style="fill:#F75534;" d="M473.541,350.62c-20.405,41.078-54.11,79.666-109.363,101.45
	c-26.958,10.639-59.025,17.278-97.205,18.249c-0.01-0.01-0.01-0.01-0.022,0c-3.244,0.086-6.543,0.13-9.885,0.13
	c-43.342,0-79.203-7.081-108.867-19.014c-54.584-21.946-88.172-60.297-108.706-101.084c2.738-0.614,5.734-0.949,9.044-0.949
	c4.236,0,7.955,0.56,11.274,1.531c23.822,6.985,27.54,35.473,57.861,35.473c34.579,0,34.579-37.004,69.147-37.004
	c34.579,0,34.579,37.004,69.147,37.004c34.579,0,34.579-37.004,69.136-37.004c34.589,0,34.589,37.004,69.158,37.004
	s34.568-37.004,69.136-37.004C467.16,349.402,470.524,349.844,473.541,350.62z"/>
<path style="fill:#BD391E;" d="M267.071,470.309c-0.022,0-0.054,0-0.097,0.01c-0.01-0.01-0.01-0.01-0.022,0
	c-3.244,0.086-6.543,0.13-9.885,0.13c-43.342,0-79.203-7.081-108.867-19.014c-54.584-21.946-88.172-60.297-108.706-101.084
	c2.738-0.614,5.734-0.949,9.044-0.949c4.236,0,7.955,0.56,11.274,1.531C90.717,411.909,150.917,467.302,267.071,470.309z"/>
</svg>